<svg width="70" height="62" viewBox="0 0 70 62" fill="none" xmlns="http://www.w3.org/2000/svg">
<path d="M69.8639 17.5356C69.8639 17.5356 67.6157 26.3552 65.0184 31.8952C63.7535 34.5927 50.5106 37.303 44.075 37.3195L40.5148 37.3593L53.3784 58.0542C53.6371 58.4676 53.4628 58.8122 52.9641 58.8115L47.5556 58.8055C47.0569 58.8047 46.3096 58.5711 45.965 58.2194L25.0921 37.3262L10.7148 37.3538C6.79914 37.36 3.49557 35.1964 3.48899 33.2322C3.48701 30.2606 9.85446 26.5978 13.7265 26.589L57.3131 26.4708L66.7582 17.5401C68.6993 17.5373 69.8639 17.5356 69.8639 17.5356ZM51.3163 12.1798C51.5694 12.2922 51.6255 12.6091 51.4374 12.9271L44.7593 23.7872L33.114 23.8709L44.0997 12.85C44.4514 12.5055 45.1414 12.178 45.6401 12.1788L51.0486 12.1848C51.1724 12.1791 51.2286 12.1413 51.3163 12.1798Z" fill="#888888" fill-opacity="0.5"/>
</svg>
